<svg width="81" height="24" viewBox="0 0 81 24" fill="none" xmlns="http://www.w3.org/2000/svg">
<rect width="24" height="24" rx="4" fill="#090A0B"/>
<g clip-path="url(#clip0_422_12881)">
<g filter="url(#filter0_f_422_12881)">
<path d="M10 -3.284L10 -11L-9.332 -11L1.915 -4.628L10 -3.284Z" fill="#03FFE0"/>
<path d="M-9.332 -11L-14 -11L-14 3.4L-14 8.2L1.915 -4.628L-9.332 -11Z" fill="#7C87F8"/>
<path d="M-14 8.2L-14 13L5.275 13L1.915 -4.628L-14 8.2Z" fill="#4C65E4"/>
<path d="M10 13L10 -3.284L1.915 -4.628L5.275 13L10 13Z" fill="#043AFF"/>
</g>
<g filter="url(#filter1_f_422_12881)">
<path d="M10 25.284L10 33L29.332 33L18.085 26.628L10 25.284Z" fill="#03FFE0"/>
<path d="M29.332 33L34 33L34 18.6L34 13.8L18.085 26.628L29.332 33Z" fill="#7C87F8"/>
<path d="M34 13.8L34 9L14.725 9L18.085 26.628L34 13.8Z" fill="#4C65E4"/>
<path d="M10 9L10 25.284L18.085 26.628L14.725 9L10 9Z" fill="#043AFF"/>
</g>
<g clip-path="url(#clip1_422_12881)">
<g filter="url(#filter2_b_422_12881)">
<path fill-rule="evenodd" clip-rule="evenodd" d="M19.837 5.63957C20.2537 5.68015 20.5757 6.04713 20.5812 6.49136C20.6212 9.39045 20.1827 19.2351 12.4992 21.4234C12.3627 21.462 12.219 21.462 12.0825 21.4234C4.39898 19.2331 3.96049 9.39047 4.00234 6.49136C4.00962 6.04713 4.32984 5.68015 4.7465 5.63957C8.20891 5.29578 11.0345 3.33149 11.9643 2.61299C12.1589 2.46234 12.4228 2.46234 12.6174 2.61299C13.549 3.33149 16.3746 5.29578 19.837 5.63957ZM14.0685 11.3839C14.0685 12.1663 13.5629 12.8305 12.8606 13.0677L13.4761 15.5298H11.1071L11.7226 13.0676C11.0205 12.8304 10.5149 12.1662 10.5149 11.3839C10.5149 10.4026 11.3104 9.60714 12.2917 9.60714C13.273 9.60714 14.0685 10.4026 14.0685 11.3839Z" fill="url(#paint0_linear_422_12881)"/>
</g>
</g>
<g clip-path="url(#clip2_422_12881)">
<g filter="url(#filter3_b_422_12881)">
<path fill-rule="evenodd" clip-rule="evenodd" d="M4.16296 5.63957C3.74633 5.68015 3.42428 6.04713 3.41883 6.49136C3.3788 9.39045 3.81727 19.2351 11.5008 21.4234C11.6373 21.462 11.781 21.462 11.9175 21.4234C19.601 19.2331 20.0395 9.39047 19.9977 6.49136C19.9904 6.04713 19.6702 5.68015 19.2535 5.63957C15.7911 5.29578 12.9655 3.33149 12.0357 2.61299C11.8411 2.46234 11.5772 2.46234 11.3826 2.61299C10.451 3.33149 7.62538 5.29578 4.16296 5.63957ZM9.9315 11.3839C9.9315 12.1663 10.4371 12.8305 11.1394 13.0677L10.5239 15.5298H12.8929L12.2774 13.0676C12.9795 12.8304 13.4851 12.1662 13.4851 11.3839C13.4851 10.4026 12.6896 9.60714 11.7083 9.60714C10.727 9.60714 9.9315 10.4026 9.9315 11.3839Z" fill="url(#paint1_linear_422_12881)"/>
</g>
</g>
<g clip-path="url(#clip3_422_12881)">
<g filter="url(#filter4_b_422_12881)">
<path d="M20.5834 6.49136C20.5779 6.04713 20.2559 5.68015 19.8393 5.63957C16.3768 5.29578 13.2794 3.33149 12.3479 2.61299C12.1532 2.46234 11.8563 2.46234 11.6617 2.61299C10.7319 3.33149 8.21113 5.29578 4.74871 5.63957C4.33206 5.68015 4.01183 6.04713 4.00455 6.49136C3.96271 9.39047 4.04128 19.2331 11.7248 21.4234C11.8613 21.462 12.1352 21.462 12.2717 21.4234C19.9553 19.2351 20.6234 9.39045 20.5834 6.49136Z" fill="url(#paint2_linear_422_12881)"/>
</g>
</g>
</g>
<path d="M36.6454 18.3663C35.361 18.3663 34.2687 17.9767 33.3684 17.1976C32.4801 16.4185 32.024 15.3899 32 14.1117H33.9806C34.0286 14.8056 34.2987 15.3595 34.7908 15.7734C35.295 16.1873 35.9131 16.3942 36.6454 16.3942C37.3055 16.3942 37.8457 16.2177 38.2658 15.8647C38.698 15.5116 38.92 15.0247 38.932 14.4039C38.932 13.7222 38.71 13.2109 38.2658 12.87C37.8337 12.517 37.2335 12.3405 36.4653 12.3405H35.457V10.6241H36.4653C37.1015 10.6241 37.6056 10.4536 37.9777 10.1128C38.3619 9.77193 38.5599 9.3276 38.5719 8.77981C38.5719 8.24418 38.3799 7.81203 37.9957 7.48335C37.6116 7.1425 37.1375 6.97207 36.5733 6.97207C35.9011 6.97207 35.343 7.17293 34.8988 7.57465C34.4547 7.9642 34.2327 8.49982 34.2327 9.18153H32.2341C32.2341 7.9155 32.6542 6.90512 33.4944 6.15038C34.3467 5.38346 35.373 5 36.5733 5C37.7617 5 38.722 5.34085 39.4542 6.02256C40.1984 6.70426 40.5705 7.58074 40.5705 8.65199C40.5705 9.24848 40.4205 9.80236 40.1204 10.3136C39.8203 10.8127 39.4482 11.1962 39.004 11.464C39.5922 11.7197 40.0603 12.1153 40.4084 12.6509C40.7565 13.1865 40.9306 13.8135 40.9306 14.5317C40.9306 15.6638 40.5285 16.589 39.7242 17.3072C38.932 18.0132 37.9057 18.3663 36.6454 18.3663Z" fill="#202327"/>
<path d="M45.1075 22H43.127V9.05371H45.1075V10.2771C45.3836 9.88758 45.7797 9.5589 46.2959 9.29108C46.824 9.0111 47.3942 8.87111 48.0064 8.87111C49.2307 8.87111 50.257 9.33369 51.0853 10.2589C51.9255 11.184 52.3456 12.304 52.3456 13.6187C52.3456 14.9334 51.9255 16.0533 51.0853 16.9785C50.257 17.9037 49.2307 18.3663 48.0064 18.3663C47.3942 18.3663 46.824 18.2324 46.2959 17.9646C45.7797 17.6846 45.3836 17.3498 45.1075 16.9603V22ZM47.6463 16.5403C48.4265 16.5403 49.0687 16.2603 49.5728 15.7003C50.077 15.1404 50.3291 14.4465 50.3291 13.6187C50.3291 12.7909 50.077 12.097 49.5728 11.5371C49.0687 10.9771 48.4265 10.6971 47.6463 10.6971C46.854 10.6971 46.2059 10.9771 45.7017 11.5371C45.1976 12.097 44.9455 12.7909 44.9455 13.6187C44.9455 14.4465 45.1976 15.1404 45.7017 15.7003C46.2059 16.2603 46.854 16.5403 47.6463 16.5403Z" fill="#202327"/>
<path d="M58.0537 18.3663C56.8294 18.3663 55.7971 17.9037 54.9568 16.9785C54.1286 16.0533 53.7145 14.9334 53.7145 13.6187C53.7145 12.304 54.1286 11.184 54.9568 10.2589C55.7971 9.33369 56.8294 8.87111 58.0537 8.87111C58.6659 8.87111 59.2301 9.0111 59.7462 9.29108C60.2624 9.5589 60.6585 9.88758 60.9346 10.2771V9.05371H62.9151V18.1837H60.9346V16.9603C60.6585 17.3498 60.2624 17.6846 59.7462 17.9646C59.2301 18.2324 58.6659 18.3663 58.0537 18.3663ZM56.4873 15.7003C56.9914 16.2603 57.6336 16.5403 58.4138 16.5403C59.1941 16.5403 59.8362 16.2603 60.3404 15.7003C60.8445 15.1404 61.0966 14.4465 61.0966 13.6187C61.0966 12.7909 60.8445 12.097 60.3404 11.5371C59.8362 10.9771 59.1941 10.6971 58.4138 10.6971C57.6336 10.6971 56.9914 10.9771 56.4873 11.5371C55.9831 12.097 55.7311 12.7909 55.7311 13.6187C55.7311 14.4465 55.9831 15.1404 56.4873 15.7003Z" fill="#202327"/>
<path d="M68.7673 18.3663C67.699 18.3663 66.7987 18.0985 66.0665 17.5628C65.3463 17.0272 64.9622 16.309 64.9141 15.4082H66.9667C67.1108 16.309 67.729 16.7594 68.8213 16.7594C69.2654 16.7594 69.6195 16.6803 69.8836 16.522C70.1477 16.3516 70.2797 16.1081 70.2797 15.7916C70.2797 15.4751 70.1777 15.2256 69.9736 15.043C69.7696 14.8604 69.4275 14.7082 68.9473 14.5865L67.4709 14.1847C65.9344 13.7709 65.1662 12.8518 65.1662 11.4275C65.1662 10.6606 65.4723 10.0458 66.0845 9.58324C66.6967 9.10848 67.5069 8.87111 68.5152 8.87111C69.4875 8.87111 70.2857 9.12066 70.9099 9.61976C71.5341 10.1189 71.8822 10.7823 71.9542 11.6101H69.9736C69.7816 10.8554 69.2894 10.478 68.4972 10.478C68.1011 10.478 67.783 10.5632 67.5429 10.7336C67.3028 10.8919 67.1828 11.1171 67.1828 11.4092C67.1828 11.9327 67.5849 12.2979 68.3892 12.5048L69.9016 12.9066C71.4981 13.3204 72.2963 14.2395 72.2963 15.6638C72.2963 16.5281 71.9662 17.1976 71.306 17.6724C70.6578 18.135 69.8116 18.3663 68.7673 18.3663Z" fill="#202327"/>
<path d="M77.471 18.3663C76.4027 18.3663 75.5024 18.0985 74.7702 17.5628C74.05 17.0272 73.6659 16.309 73.6178 15.4082H75.6704C75.8145 16.309 76.4327 16.7594 77.525 16.7594C77.9691 16.7594 78.3232 16.6803 78.5873 16.522C78.8514 16.3516 78.9834 16.1081 78.9834 15.7916C78.9834 15.4751 78.8814 15.2256 78.6773 15.043C78.4733 14.8604 78.1312 14.7082 77.651 14.5865L76.1746 14.1847C74.6381 13.7709 73.8699 12.8518 73.8699 11.4275C73.8699 10.6606 74.176 10.0458 74.7882 9.58324C75.4004 9.10848 76.2106 8.87111 77.2189 8.87111C78.1912 8.87111 78.9894 9.12066 79.6136 9.61976C80.2378 10.1189 80.5859 10.7823 80.6579 11.6101H78.6773C78.4853 10.8554 77.9931 10.478 77.2009 10.478C76.8048 10.478 76.4867 10.5632 76.2466 10.7336C76.0065 10.8919 75.8865 11.1171 75.8865 11.4092C75.8865 11.9327 76.2886 12.2979 77.0929 12.5048L78.6053 12.9066C80.2018 13.3204 81 14.2395 81 15.6638C81 16.5281 80.6699 17.1976 80.0097 17.6724C79.3615 18.135 78.5153 18.3663 77.471 18.3663Z" fill="#202327"/>
<defs>
<filter id="filter0_f_422_12881" x="-23.5" y="-20.5" width="43" height="43" filterUnits="userSpaceOnUse" color-interpolation-filters="sRGB">
<feFlood flood-opacity="0" result="BackgroundImageFix"/>
<feBlend mode="normal" in="SourceGraphic" in2="BackgroundImageFix" result="shape"/>
<feGaussianBlur stdDeviation="4.75" result="effect1_foregroundBlur_422_12881"/>
</filter>
<filter id="filter1_f_422_12881" x="0.5" y="-0.5" width="43" height="43" filterUnits="userSpaceOnUse" color-interpolation-filters="sRGB">
<feFlood flood-opacity="0" result="BackgroundImageFix"/>
<feBlend mode="normal" in="SourceGraphic" in2="BackgroundImageFix" result="shape"/>
<feGaussianBlur stdDeviation="4.75" result="effect1_foregroundBlur_422_12881"/>
</filter>
<filter id="filter2_b_422_12881" x="-3.66667" y="-5.16667" width="31.9166" height="34.2857" filterUnits="userSpaceOnUse" color-interpolation-filters="sRGB">
<feFlood flood-opacity="0" result="BackgroundImageFix"/>
<feGaussianBlur in="BackgroundImageFix" stdDeviation="3.83333"/>
<feComposite in2="SourceAlpha" operator="in" result="effect1_backgroundBlur_422_12881"/>
<feBlend mode="normal" in="SourceGraphic" in2="effect1_backgroundBlur_422_12881" result="shape"/>
</filter>
<filter id="filter3_b_422_12881" x="-4.24998" y="-5.16667" width="31.9166" height="34.2857" filterUnits="userSpaceOnUse" color-interpolation-filters="sRGB">
<feFlood flood-opacity="0" result="BackgroundImageFix"/>
<feGaussianBlur in="BackgroundImageFix" stdDeviation="3.83333"/>
<feComposite in2="SourceAlpha" operator="in" result="effect1_backgroundBlur_422_12881"/>
<feBlend mode="normal" in="SourceGraphic" in2="effect1_backgroundBlur_422_12881" result="shape"/>
</filter>
<filter id="filter4_b_422_12881" x="-3.66673" y="-5.16667" width="31.9184" height="34.2857" filterUnits="userSpaceOnUse" color-interpolation-filters="sRGB">
<feFlood flood-opacity="0" result="BackgroundImageFix"/>
<feGaussianBlur in="BackgroundImageFix" stdDeviation="3.83333"/>
<feComposite in2="SourceAlpha" operator="in" result="effect1_backgroundBlur_422_12881"/>
<feBlend mode="normal" in="SourceGraphic" in2="effect1_backgroundBlur_422_12881" result="shape"/>
</filter>
<linearGradient id="paint0_linear_422_12881" x1="12.2917" y1="3" x2="12.2917" y2="21.4524" gradientUnits="userSpaceOnUse">
<stop stop-color="white"/>
<stop offset="0.0001" stop-color="white"/>
<stop offset="1" stop-color="white" stop-opacity="0.7"/>
</linearGradient>
<linearGradient id="paint1_linear_422_12881" x1="11.7083" y1="3" x2="11.7083" y2="21.4524" gradientUnits="userSpaceOnUse">
<stop stop-color="white"/>
<stop offset="0.0001" stop-color="white"/>
<stop offset="1" stop-color="white" stop-opacity="0.7"/>
</linearGradient>
<linearGradient id="paint2_linear_422_12881" x1="12.2925" y1="3" x2="12.2925" y2="21.4524" gradientUnits="userSpaceOnUse">
<stop stop-color="white"/>
<stop offset="0.0001" stop-color="white"/>
<stop offset="1" stop-color="white" stop-opacity="0.7"/>
</linearGradient>
<clipPath id="clip0_422_12881">
<path d="M0 4C0 1.79086 1.79086 0 4 0H20C22.2091 0 24 1.79086 24 4V20C24 22.2091 22.2091 24 20 24H4C1.79086 24 0 22.2091 0 20V4Z" fill="white"/>
</clipPath>
<clipPath id="clip1_422_12881">
<rect width="4.5" height="19" fill="white" transform="translate(4 2.5)"/>
</clipPath>
<clipPath id="clip2_422_12881">
<rect width="4.5" height="19" fill="white" transform="matrix(-1 0 0 1 20 2.5)"/>
</clipPath>
<clipPath id="clip3_422_12881">
<rect width="4" height="19" fill="white" transform="translate(10 2.5)"/>
</clipPath>
</defs>
</svg>
