<svg width="32" height="32" viewBox="0 0 32 32" fill="none" xmlns="http://www.w3.org/2000/svg">
<rect width="32" height="32" rx="16" fill="#F5F6FA"/>
<path d="M20.8422 8.81222L17.4978 13.7778C17.4501 13.8493 17.43 13.9356 17.4411 14.0208C17.4522 14.106 17.4938 14.1843 17.5582 14.2413C17.6225 14.2982 17.7053 14.3298 17.7913 14.3304C17.8772 14.331 17.9604 14.3005 18.0256 14.2444L21.3178 11.3889C21.3371 11.3716 21.361 11.3604 21.3866 11.3565C21.4122 11.3525 21.4383 11.3562 21.4619 11.3669C21.4855 11.3776 21.5054 11.395 21.5193 11.4168C21.5331 11.4387 21.5403 11.4641 21.54 11.49V20.43C21.54 20.4574 21.5316 20.4841 21.5158 20.5065C21.5001 20.5289 21.4779 20.5459 21.4522 20.5553C21.4265 20.5646 21.3985 20.5658 21.3721 20.5587C21.3456 20.5516 21.322 20.5365 21.3044 20.5156L11.3533 8.60333C11.1933 8.41433 10.994 8.26245 10.7693 8.15826C10.5446 8.05407 10.2999 8.00006 10.0522 8H9.70444C9.2524 8 8.81887 8.17957 8.49922 8.49922C8.17957 8.81887 8 9.2524 8 9.70444V22.2956C8 22.7476 8.17957 23.1811 8.49922 23.5008C8.81887 23.8204 9.2524 24 9.70444 24C9.99591 24.0001 10.2825 23.9255 10.537 23.7833C10.7914 23.6411 11.0051 23.4361 11.1578 23.1878L14.5022 18.2222C14.5499 18.1507 14.57 18.0644 14.5589 17.9792C14.5478 17.894 14.5062 17.8157 14.4418 17.7587C14.3775 17.7018 14.2947 17.6702 14.2087 17.6696C14.1228 17.669 14.0396 17.6995 13.9744 17.7556L10.6822 20.6111C10.6629 20.6284 10.639 20.6396 10.6134 20.6435C10.5878 20.6475 10.5617 20.6438 10.5381 20.6331C10.5145 20.6224 10.4946 20.605 10.4807 20.5832C10.4669 20.5613 10.4597 20.5359 10.46 20.51V11.5678C10.46 11.5404 10.4684 11.5137 10.4842 11.4913C10.4999 11.4689 10.5221 11.4518 10.5478 11.4425C10.5735 11.4332 10.6015 11.432 10.6279 11.4391C10.6544 11.4462 10.678 11.4612 10.6956 11.4822L20.6456 23.3967C20.8056 23.5857 21.0049 23.7375 21.2296 23.8417C21.4543 23.9459 21.699 23.9999 21.9467 24H22.2944C22.5184 24.0001 22.7401 23.9562 22.947 23.8706C23.154 23.785 23.342 23.6595 23.5004 23.5012C23.6588 23.3429 23.7844 23.1549 23.8702 22.9481C23.9559 22.7412 24 22.5195 24 22.2956V9.70444C24 9.2524 23.8204 8.81887 23.5008 8.49922C23.1811 8.17957 22.7476 8 22.2956 8C22.0041 7.99992 21.7175 8.07454 21.463 8.21673C21.2086 8.35892 20.9949 8.56394 20.8422 8.81222Z" fill="black"/>
</svg>
